<?xml version="1.0" encoding="UTF-8" standalone="no"?>
<!-- Created with Inkscape (http://www.inkscape.org/) -->

<svg
   xmlns:dc="http://purl.org/dc/elements/1.1/"
   xmlns:cc="http://creativecommons.org/ns#"
   xmlns:rdf="http://www.w3.org/1999/02/22-rdf-syntax-ns#"
   xmlns:svg="http://www.w3.org/2000/svg"
   xmlns="http://www.w3.org/2000/svg"
   xmlns:sodipodi="http://sodipodi.sourceforge.net/DTD/sodipodi-0.dtd"
   xmlns:inkscape="http://www.inkscape.org/namespaces/inkscape"
   version="1.1"
   id="svg10"
   xml:space="preserve"
   width="1394.5066"
   height="768"
   viewBox="0 0 1394.5066 768"
   sodipodi:docname="Radio Aalto logo 2020.svg"
   inkscape:version="0.92.4 (5da689c313, 2019-01-14)"><metadata
     id="metadata16"><rdf:RDF><cc:Work
         rdf:about=""><dc:format>image/svg+xml</dc:format><dc:type
           rdf:resource="http://purl.org/dc/dcmitype/StillImage" /><dc:title></dc:title></cc:Work></rdf:RDF></metadata><defs
     id="defs14"><clipPath
       clipPathUnits="userSpaceOnUse"
       id="clipPath26"><path
         d="M 0,576 H 1045.88 V 0 H 0 Z"
         id="path24"
         inkscape:connector-curvature="0" /></clipPath></defs><sodipodi:namedview
     pagecolor="#ffffff"
     bordercolor="#666666"
     borderopacity="1"
     objecttolerance="10"
     gridtolerance="10"
     guidetolerance="10"
     inkscape:pageopacity="0"
     inkscape:pageshadow="2"
     inkscape:window-width="1920"
     inkscape:window-height="1017"
     id="namedview12"
     showgrid="false"
     inkscape:zoom="0.39038187"
     inkscape:cx="1518.965"
     inkscape:cy="71.746079"
     inkscape:window-x="-8"
     inkscape:window-y="-8"
     inkscape:window-maximized="1"
     inkscape:current-layer="g18" /><g
     id="g18"
     inkscape:groupmode="layer"
     inkscape:label="RadioAalto_color_RGB"
     transform="matrix(1.3333333,0,0,-1.3333333,0,767.99998)"><g
       id="g20"><g
         id="g22"
         clip-path="url(#clipPath26)"><g
           id="g28"
           transform="translate(452.9828,186.0181)"><path
             d="m 0,0 c -31.319,-3.017 -59.241,-13.96 -85.65,-26.414 -10.565,-34.712 -18.491,-65.274 -21.889,-84.139 -32.825,2.64 -47.919,19.241 -47.919,40.746 0,2.646 0,5.664 0.38,9.059 -20.379,-9.059 -40.752,-15.477 -61.506,-15.477 -39.994,0 -58.485,16.23 -58.485,38.112 0,16.986 10.944,37.36 31.697,55.846 26.037,-17.355 52.068,-23.768 76.974,-23.768 6.791,0 13.58,0.378 20.372,1.51 23.774,96.969 85.28,226.394 115.838,226.394 11.698,0 50.563,-3.398 54.336,-23.398 l 7.166,-35.462 c 6.795,-35.475 13.589,-68.68 20.379,-99.243 27.92,-1.508 36.975,-14.715 36.975,-29.431 0,-16.602 -11.696,-34.711 -20.371,-39.238 22.639,-79.614 51.692,-131.688 103.013,-141.5 -24.151,-26.791 -46.416,-39.615 -66.794,-39.615 C 59.618,-186.018 24.148,-122.251 0,0 M -23.017,147.155 C -39.994,108.299 -56.973,62.258 -71.315,18.871 c 22.263,10.184 43.017,21.134 63.015,29.811 -4.905,30.184 -9.058,63.004 -12.456,98.473 z"
             style="fill:#e35205;fill-opacity:1;fill-rule:nonzero;stroke:none"
             id="path30"
             inkscape:connector-curvature="0" /></g><g
           id="g32"
           transform="translate(666.514,260.2276)"><path
             d="m 0,0 c 6.041,1.509 12.455,2.641 18.109,2.641 9.055,0 15.856,-2.641 15.856,-11.692 0,-27.175 -0.509,-49.435 -0.756,-68.304 -0.713,-54.521 5.397,-77.112 42.633,-90.935 0,0 -26.79,-21.877 -47.918,-21.877 -31.323,0 -36.599,37.729 -39.622,81.116 H -13.2 c -23.027,-47.164 -42.262,-55.084 -59.24,-55.084 -28.304,0 -41.51,30.179 -41.51,67.166 0,56.594 30.565,128.287 81.887,128.287 C -12.453,31.318 -3.771,12.831 0,0 m -20.748,-27.916 c -1.132,4.52 -2.265,9.045 -3.772,13.194 -20.757,-18.48 -32.453,-65.275 -32.453,-89.796 0,-9.437 1.885,-15.841 5.658,-15.841 9.817,0 32.83,24.899 32.83,68.285 0,7.551 -0.754,15.478 -2.263,24.158"
             style="fill:#e35205;fill-opacity:1;fill-rule:nonzero;stroke:none"
             id="path34"
             inkscape:connector-curvature="0" /></g><g
           id="g36"
           transform="translate(744.6058,413.2159)"><path
             d="m 0,0 c 18.026,-1.85 31.294,-13.438 30.939,-49.778 -0.572,-58.893 -10.038,-103.691 -9.999,-154.372 0.026,-56.419 2.069,-72.696 31.877,-96.398 -16.232,-9.091 -26.403,-12.115 -38.471,-12.115 -29.43,0 -45.481,23.715 -46.416,54.122 -1.237,40.396 9.812,104.455 9.812,137.249 0,58.468 -1.509,82.175 -42.263,88.498 C -45.988,-10.937 -20.073,2.061 0,0"
             style="fill:#e35205;fill-opacity:1;fill-rule:nonzero;stroke:none"
             id="path38"
             inkscape:connector-curvature="0" /></g><g
           id="g40"
           transform="translate(818.7972,347.2613)"><path
             d="m 0,0 c -1.138,27.797 -4.533,47.552 -11.698,56.688 14.715,4.952 25.971,7.614 36.155,7.614 18.87,0 29.054,-9.516 29.054,-31.215 0,-4.569 -1.332,-21.837 -3.016,-34.605 0,0 24.904,-1.524 34.71,-1.524 38.491,0 79.243,7.61 126.784,46.447 9.06,-11.424 15.094,-25.89 15.094,-39.594 0,-37.313 -43.018,-49.876 -79.236,-49.876 -30.185,0 -66.037,4.955 -100.37,7.62 -2.265,-28.182 -3.772,-59.727 -3.772,-90.948 0,-41.878 3.387,-81.479 13.205,-104.317 0,0 -28.232,-16.374 -48.229,-16.374 -10.574,0 -18.494,4.188 -18.494,17.903 0,39.589 8.675,125.197 9.813,194.874 -14.339,-0.759 -21.701,-2.145 -28.184,-3.941 -5.249,-1.449 -9.28,9.255 -8.719,23.359 0.174,4.656 0.948,10.04 2.261,12.817 C -24.587,-1.551 -15.556,-0.25 0,0"
             style="fill:#e35205;fill-opacity:1;fill-rule:nonzero;stroke:none"
             id="path42"
             inkscape:connector-curvature="0" /></g><g
           id="g44"
           transform="translate(1035.807,198.2637)"><path
             d="m 0,0 c 0,-49.688 -26.575,-100.911 -79.346,-100.911 -55.079,0 -80.121,42.75 -80.121,87.813 0,51.236 31.974,105.541 88.594,105.541 C -23.495,92.443 0,46.996 0,0 m -104.381,-5.391 c 0,-31.2 8.089,-62.017 28.502,-62.017 17.327,0 24.643,23.501 24.643,50.078 0,35.432 -12.706,76.654 -31.967,76.654 -12.706,0 -21.178,-32.755 -21.178,-64.715"
             style="fill:#e35205;fill-opacity:1;fill-rule:nonzero;stroke:none"
             id="path46"
             inkscape:connector-curvature="0" /></g><g
           id="g48"
           transform="translate(252.2162)"><path
             d="m 0,0 -153.971,0.004 c -24.389,0.194 -47.668,9.257 -65.681,25.52 -19.64,17.724 -31.162,42.018 -32.445,68.404 -1.281,26.326 7.779,51.643 25.506,71.284 l 340.535,378.205 c 18.706,20.712 45.489,32.581 73.498,32.583 24.672,0 48.335,-9.096 66.635,-25.612 20.331,-18.349 32.198,-44.558 32.563,-71.906 v -10.55 h -34.49 v 10.321 c -0.238,17.813 -7.762,34.419 -21.182,46.533 -11.951,10.784 -27.407,16.725 -43.524,16.725 -18.27,-0.002 -35.724,-7.727 -47.885,-21.192 l -340.534,-378.2 c -11.59,-12.843 -17.506,-29.357 -16.672,-46.515 0.835,-17.15 8.329,-32.948 21.104,-44.476 11.744,-10.602 26.91,-16.508 42.712,-16.635 L 0,34.489 Z"
             style="fill:#e35205;fill-opacity:1;fill-rule:nonzero;stroke:none"
             id="path50"
             inkscape:connector-curvature="0" /></g><g
           id="g52"
           transform="translate(529.3431,373.355)"><path
             d="m 0,0 c 2.404,0 4.205,-0.944 4.205,-4.035 0,-2.404 0,-4.807 -0.171,-7.298 10.904,2.405 17.771,10.389 17.771,15.882 0,3.09 -2.232,5.407 -7.211,5.407 -11.073,0 -30.99,-10.643 -30.99,-22.745 0,-0.517 0,-0.945 0.086,-1.461 -6.868,0 -8.413,4.12 -8.413,9.014 0,15.281 28.329,35.109 46.871,35.109 11.846,0 17.684,-6.609 17.684,-14.851 0,-9.529 -7.641,-21.118 -22.492,-27.299 12.356,-9.965 10.15,-40.212 31.352,-43.989 -6.523,-6.524 -11.503,-9.185 -15.537,-9.185 -16.998,0 -13.266,47.972 -25.945,48.797 -1.286,0.085 -2.489,0.773 -3.434,1.547 -0.255,-4.294 -0.514,-8.501 -0.514,-12.451 0,-8.238 1.203,-15.364 6.181,-19.313 0,0 -10.902,-3.26 -15.795,-3.26 -3.089,0 -3.948,3.775 -3.948,9.356 0,6.439 1.114,15.193 1.114,23.176 0,5.237 -0.427,10.216 -2.06,13.908 0,0 6.696,3.691 11.246,3.691"
             style="fill:#e35205;fill-opacity:1;fill-rule:nonzero;stroke:none"
             id="path54"
             inkscape:connector-curvature="0" /></g><g
           id="g56"
           transform="translate(591.4945,360.5982)"><path
             d="m 0,0 c 1.374,0.342 2.835,0.601 4.121,0.601 2.062,0 3.607,-0.601 3.607,-2.661 0,-6.182 -0.174,-11.245 -0.174,-15.538 0,-11.846 1.203,-17.256 9.704,-20.689 0,0 -6.096,-4.979 -10.904,-4.979 -7.125,0 -8.328,8.584 -9.015,18.457 h -0.342 c -5.235,-10.732 -9.614,-12.535 -13.477,-12.535 -6.44,0 -9.443,6.87 -9.443,15.281 0,12.878 6.951,29.188 18.628,29.188 C -2.833,7.125 -0.857,2.918 0,0 m -4.721,-6.352 c -0.257,1.03 -0.515,2.06 -0.857,3.003 -4.723,-4.206 -7.382,-14.85 -7.382,-20.432 0,-2.145 0.429,-3.605 1.286,-3.605 2.233,0 7.469,5.666 7.469,15.539 0,1.719 -0.173,3.519 -0.516,5.495"
             style="fill:#e35205;fill-opacity:1;fill-rule:nonzero;stroke:none"
             id="path58"
             inkscape:connector-curvature="0" /></g><g
           id="g60"
           transform="translate(653.4349,367.8033)"><path
             d="m 0,0 c 2.405,0 4.206,-0.943 4.206,-4.033 0,-3.608 -1.544,-13.908 -1.544,-23.009 0,-6.694 0.858,-12.703 3.69,-15.021 -3.26,-0.515 -6.011,-0.773 -8.24,-0.773 -6.007,0 -8.412,2.233 -8.412,9.014 0,3.088 1.289,8.756 1.289,15.711 0,4.375 -0.518,9.269 -2.235,14.419 0,0 6.697,3.692 11.246,3.692 m -8.843,10.815 c 0,3.949 2.747,8.243 6.867,8.243 4.638,0 6.871,-3.605 6.871,-7.296 0,-3.779 -2.406,-7.641 -6.871,-7.641 -4.804,0 -6.867,3.261 -6.867,6.694"
             style="fill:#e35205;fill-opacity:1;fill-rule:nonzero;stroke:none"
             id="path62"
             inkscape:connector-curvature="0" /></g><g
           id="g64"
           transform="translate(694.2826,347.0899)"><path
             d="m 0,0 c 0,-11.074 -5.926,-22.491 -17.685,-22.491 -12.275,0 -17.857,9.529 -17.857,19.574 0,11.416 7.126,23.52 19.744,23.52 C -5.236,20.603 0,10.474 0,0 m -23.267,-1.201 c 0,-6.953 1.804,-13.822 6.353,-13.822 3.863,0 5.493,5.239 5.493,11.162 0,7.897 -2.831,17.082 -7.124,17.082 -2.832,0 -4.722,-7.298 -4.722,-14.422"
             style="fill:#e35205;fill-opacity:1;fill-rule:nonzero;stroke:none"
             id="path66"
             inkscape:connector-curvature="0" /></g><g
           id="g68"
           transform="translate(625.5931,365.4444)"><path
             d="m 0,0 c 0.18,3.812 0.265,7.623 0.265,11.172 0,7.804 -0.532,14.543 -2.215,18.533 0,0 6.915,3.813 11.616,3.813 2.483,0 4.344,-0.976 4.344,-4.167 0,-9.756 -2.304,-26.516 -2.304,-41.325 0,-10.907 0.895,-19.531 4.519,-26.209 0,0 -4.345,-2.431 -9.309,-2.431 -4.611,0 -5.671,5.142 -6.117,12.058 -5.32,-10.729 -10.022,-11.971 -13.921,-11.971 -7.096,0 -10.291,7.627 -10.291,16.405 0,12.238 6.213,26.871 16.851,26.871 C -3.814,2.749 -1.598,1.506 0,0 m -0.529,-13.656 c 0.083,2.837 0.349,5.676 0.349,8.601 -6.651,-1.066 -9.664,-12.683 -9.664,-19.776 0,-3.103 0.532,-5.409 1.686,-5.409 2.394,0 6.473,4.789 7.629,16.584"
             style="fill:#e35205;fill-opacity:1;fill-rule:nonzero;stroke:none"
             id="path70"
             inkscape:connector-curvature="0" /></g></g></g></g></svg>